REM MD5 562b7b94fb8cc4afc48b1157a18ea7bb
FILE "SuperLite 1500 Series - Oekaki Puzzle 3 (Japan).bin" BINARY
  TRACK 01 MODE2/2352
    INDEX 01 00:00:00
  TRACK 02 AUDIO
    INDEX 00 00:08:64
    INDEX 01 00:10:64
  TRACK 03 AUDIO
    INDEX 00 02:14:06
    INDEX 01 02:16:06
  TRACK 04 AUDIO
    INDEX 00 06:19:18
    INDEX 01 06:21:18
  TRACK 05 AUDIO
    INDEX 00 16:24:30
    INDEX 01 16:26:30
  TRACK 06 AUDIO
    INDEX 00 26:26:27
    INDEX 01 26:28:27
REM LEADOUT 36:31:40
